Patient4_TMGait_0pt4_01_right_41_EMG.mot
version=1
nRows=13
nColumns=33
inDegrees=no
endheader
time	1LAddLong	2LGlutMax	3LGlutMed	4LIliopsoas	5LSemiMemb	6LBicFemLong	7LRecFem	8LVastMed	9LVastLat	10LGasMed	11LTibAnt	12lTibPost	13LPeroneusLong	14LSol	15LExtDigLong	16LFlexDigLong	17RAddLong	18RGlutMax	19RGlutMed	20RIliopsoas	21RSemiMemb	22RBicFemLong	23RRecFem	24RVastMed	25RVastLat	26RGasMed	27RTibAnt	28RTibPost	29RPeroneusLong	30RSol	31RExtDigLong	32RFlexDigLong
54.4	0.058136	0.18982	-0.048523	0.007782	0.18631	-0.56808	-0.069427	-0.020142	-0.08728	0.019989	0.036469	0.008392	-0.035858	0.02533	0.009766	-0.001526	0.010529	-0.054321	-0.054474	-0.13916	0.20935	-0.13046	-0.33249	-0.018005	-0.018158	0.019989	0.055695	-0.005951	-0.32516	-0.053253	-0.003662	-0.023651
54.401	0.050964	0.13748	-0.034943	0.010681	0.15121	-0.392	-0.029144	-0.007172	-0.1416	0.028687	0.012512	0.00412	-0.037842	0.030518	0.021515	-0.005798	-0.002136	-0.040741	-0.35523	-0.1149	0.27817	-0.12619	-0.3215	0.07019	-0.014191	-0.006714	0.06012	-0.02182	-0.20783	-0.42175	-0.001373	-0.032806
54.402	0.030518	0.13412	-0.02182	0.015259	0.092468	-0.085144	-0.059357	0.012817	-0.059509	0.026093	0.003662	0.005798	-0.03006	0.016174	0.007172	0.001221	-0.016785	-0.019684	-0.63705	-0.12024	0.1976	0.011597	-0.327	0.06073	-0.000458	-0.10117	0.051117	-0.053711	-0.17059	-0.24582	-0.003204	-0.020294
54.403	0.013428	0.15289	-0.012054	0.026245	0.048065	0.14862	-0.081177	0.01709	-0.010071	-0.012817	-0.063782	0.011749	0.0177	0.025024	-0.024261	0.001984	0.014801	-0.000763	-0.7106	0.031586	0.03479	0.079346	-0.29068	-0.006561	-0.002136	-0.10712	-0.036316	-0.12848	0.40009	0.072937	-0.001984	-0.011749
54.404	0.006104	0.11993	-0.018768	-0.011902	-0.010834	0.18097	0.014343	0.00946	-0.040894	-0.010071	-0.14206	0.014648	0.062714	0.028534	-0.015717	0.001984	0.040436	0.002136	0.34256	0.10468	-0.048065	0.02655	-0.28488	-0.023193	-0.018158	-0.052795	-0.072632	-0.12848	0.77225	0.14679	0	-0.013428
54.405	-0.013428	0.14969	0.006866	-0.016479	-0.037842	0.14175	0.093689	0.036469	-0.069275	-0.00824	-0.036469	0.011292	0.061798	0.004578	0.016937	-0.002441	0.015717	-0.07019	0.95184	0.18875	0.13748	0.005188	-0.33691	0.030518	0.014648	-0.00946	-0.06073	0.040588	0.32166	0.10529	-0.000763	-0.018005
54.406	-0.021515	0.13306	-0.000305	-0.000153	-0.072479	0.11169	0.073853	0.0383	-0.085297	0.00885	0.045319	0.001526	0.030823	0.010681	0.06897	-0.003967	-0.01709	-0.20966	0.60791	0.12909	0.22385	0.068359	-0.32211	0.033722	0.005798	-0.018158	-0.046692	0.20462	-0.13596	0.083771	-0.005341	-0.019073
54.407	-0.028839	0.17639	0.046387	0.000916	-0.15396	0.046387	-0.011139	0.054779	-0.096436	0.026245	-0.005035	0.010376	-0.003815	-0.003052	0.074158	0.007935	-0.023804	-0.18097	0.793	0.041962	0.13412	-0.012512	-0.31815	0.030365	0.024719	0.035706	-0.015717	0.1004	-0.17242	0.18478	-0.001068	-0.024567
54.408	-0.006561	0.21301	0.043182	0.016632	-0.12177	-0.016022	-0.099487	0.026855	-0.078888	0.032349	0.006409	0.014648	-0.023499	0.010986	0.031281	-0.000458	0.011292	-0.12604	0.39841	-0.001068	0.14847	-0.059662	-0.27252	0.022583	0.021973	0.017853	0.007477	-0.000916	-0.12955	0.14679	-0.000458	-0.014954
54.409	0.003967	0.15182	0.034943	0.028534	-0.003357	0.080414	-0.1001	0.017853	-0.019989	0.026703	0.015869	0.011139	-0.024261	0.006256	0.019836	0.006714	-0.00824	-0.13306	0.25726	-0.011597	0.30136	-0.1207	-0.28946	0.011292	0.005035	0.027924	-0.011902	-0.020142	0.023651	-0.48691	-0.001678	-0.014496
54.41	0.0177	0.13794	0.028687	0.01297	-0.009613	0.18906	-0.084839	-0.01358	0.066681	0.02533	0.00351	0.009155	-0.014343	0.023804	-0.019073	0.003357	0.007477	-0.23438	0.031433	0.023804	0.233	-0.097656	-0.27405	0.000153	0.019684	0.039825	-0.067444	0.027161	0.094147	-0.49972	-0.002441	-0.017548
54.411	0.026398	0.17838	0.031281	0.00351	0.012207	0.30594	-0.080719	-0.02594	0.1741	0.015564	0.003815	0.013123	-0.018005	0.029602	-0.046387	0.007477	0.015869	-0.16327	0.062866	0.003662	0.19394	0.047913	-0.26779	0.011139	-0.000916	0.020142	-0.054779	-0.14358	-0.10635	-0.18066	-0.003052	-0.011292
54.412	0.037079	0.21103	0.020905	0.010986	0.072021	0.54443	-0.071869	-0.014954	0.215	0.025635	0.001526	0.02243	0.002594	0.019989	-0.018158	0.005188	0.030823	-0.17303	0.30075	-0.061646	0.18021	0.15625	-0.24857	-0.030823	-0.000763	0.010071	-0.042725	-0.082245	-0.20889	-0.066833	-0.000916	-0.020599
